<svg width="486" height="499" viewBox="0 0 486 499" fill="none" xmlns="http://www.w3.org/2000/svg">
<path d="M456.005 497.647H45.2908" stroke="#949494" stroke-width="1.5"/>
<path d="M97.197 214.083C97.197 214.083 185.404 336.713 99.9382 469.996L97.87 496.471L60.8308 476.126" stroke="#949494"/>
<path d="M1.03328 191.036L1.7992 274.761V496.761H67.0652L60.1645 484.397L82.7284 210.046L1.03328 191.036Z" stroke="#949494"/>
<path d="M34.7538 41.4207V67.1298L66.6021 74.9575V31.5719L34.7538 23.7441V41.4207V41.4207Z" stroke="#949494"/>
<path d="M52.7443 50.3159C52.274 50.3159 51.8927 49.9347 51.8927 49.4644C51.8927 48.9941 52.274 48.6128 52.7443 48.6128C53.2146 48.6128 53.5959 48.9941 53.5959 49.4644C53.5959 49.9347 53.2146 50.3159 52.7443 50.3159Z" fill="#949494"/>
<path d="M39.6651 50.3159C39.1948 50.3159 38.8135 49.9347 38.8135 49.4644C38.8135 48.9941 39.1948 48.6128 39.6651 48.6128C40.1354 48.6128 40.5167 48.9941 40.5167 49.4644C40.5167 49.9347 40.1354 50.3159 39.6651 50.3159Z" fill="#949494"/>
<path d="M43.5023 54.5441V41.4209H36.9279" stroke="#949494" stroke-width="1.5"/>
<path d="M54.3486 41.4211H47.7743" stroke="#949494" stroke-width="1.5"/>
<path d="M64.5044 52.702C65.6849 52.702 66.8171 52.2331 67.6518 51.3984C68.4866 50.5636 68.9555 49.4315 68.9555 48.251" stroke="#949494" stroke-width="1.5"/>
<path d="M46.3777 57.7795C48.8658 57.7795 50.8828 55.7625 50.8828 53.2744" stroke="#949494" stroke-width="1.5" stroke-linecap="round" stroke-linejoin="round"/>
<path d="M34.7538 67.1294L66.6021 74.9572" stroke="#949494" stroke-width="1.5"/>
<path d="M43.5023 54.5546L46.3777 55.2614" stroke="#949494" stroke-width="1.5" stroke-linecap="round"/>
<path d="M64.0477 47.0764C64.0477 47.0764 57.8435 41.2725 57.7434 35.6687C57.7434 35.6687 34.3278 39.1711 30.8255 38.1704L33.3272 33.3672C30.514 32.2713 27.802 30.932 25.2218 29.3645C25.2218 29.3645 55.3418 8.35053 69.051 30.4653C69.051 30.4653 78.226 34.8682 68.7352 47.0764" stroke="#949494" stroke-width="1.5"/>
<path d="M1.41715 120.995V190.541L99.9383 214.756V137.301C99.9383 109.837 81.1886 85.9205 54.518 79.3653H54.5179C41.7276 76.2217 28.2022 79.1321 17.8369 87.2582C7.4716 95.3844 1.4171 107.824 1.4171 120.995L1.41715 120.995Z" stroke="#949494"/>
<path d="M17.1162 167.256C30.6998 182.876 60.1979 181.166 88.9021 172.33C83.3479 183.274 68.3358 191.119 50.6776 191.119C28.2952 191.119 10.1506 178.518 10.1506 162.975C10.151 161.522 10.3105 160.073 10.6262 158.655C12.5829 161.672 14.7517 164.547 17.1162 167.256Z" fill="#949494"/>
<path d="M60.5756 484.098L83.1495 209.564" stroke="#949494" stroke-width="1.5"/>
<path d="M7.56247 98.8418C7.56247 98.8418 -12.9066 132.733 17.1165 167.256C47.1395 201.779 154.908 151.646 160.012 127.03C165.115 102.413 161.212 104.515 155.509 109.618C149.805 114.721 146.803 113.521 146.803 113.521C146.803 113.521 145.902 103.914 142.9 106.616C139.898 109.318 138.998 114.421 138.998 114.421L66.602 133.634L48.6304 103.914" stroke="#949494" stroke-width="1.5"/>
<path d="M70.8117 86.0396C70.8117 86.0396 97.5433 102.682 108.514 122.51" stroke="#949494" stroke-width="1.5"/>
<path d="M142.801 146.431C142.801 146.431 181.126 149.945 200.338 153.147C219.551 156.349 197.937 160.352 197.937 160.352C197.937 160.352 187.93 174.761 170.719 169.158C170.719 169.158 135.629 185.969 99.9383 176.763" stroke="#949494" stroke-width="1.5"/>
<rect width="235.399" height="170.686" transform="matrix(-1 0 0 1 443.695 225.601)" stroke="#949494"/>
<path d="M208.297 225.601V396.287" stroke="#949494" stroke-width="1.5"/>
<path d="M405.474 284.092L407.568 277.057C410.877 265.933 421.103 258.307 432.709 258.307H484.749L443.695 396.286H208.296L241.679 284.092H405.474Z" stroke="#949494"/>
<path d="M443.695 396.286H208.296" stroke="#949494" stroke-width="1.5"/>
<path d="M208.296 396.287L241.679 284.092H405.475" stroke="#949494" stroke-width="1.5"/>
<path d="M292.019 31.4185H277.676L232.831 76.2646V194.227H357.857V164.085" stroke="#949494"/>
<path d="M357.857 194.227H232.831V76.2646" stroke="#949494" stroke-width="1.5"/>
<path d="M335.611 100.658H283.398" stroke="#949494" stroke-width="1.5"/>
<path d="M335.611 111.652H283.398" stroke="#949494" stroke-width="1.5"/>
<path d="M335.611 122.645H283.398" stroke="#949494" stroke-width="1.5"/>
<path d="M335.611 133.64H309.504" stroke="#949494" stroke-width="1.5"/>
<path d="M277.203 46.053V164.016H402.228V1.11572H322.339" stroke="#949494" stroke-width="1.5"/>
<path d="M277.203 46.0531L322.049 1.20703V46.0531H277.203V46.0531Z" stroke="#949494"/>
<path d="M365.823 70.446H313.61" stroke="#949494" stroke-width="1.5"/>
<path d="M365.823 81.4402H313.61" stroke="#949494" stroke-width="1.5"/>
<path d="M365.823 92.4343H313.61" stroke="#949494" stroke-width="1.5"/>
<path d="M365.823 103.428H339.716" stroke="#949494" stroke-width="1.5"/>
</svg>
